Coordinates
version=1
nRows=15
nColumns=19
inDegrees=yes

Units are S.I. units (second, meters, Newtons, ...)
If the header above contains a line with 'inDegrees', this indicates whether rotational values are in degrees (yes) or radians (no).

endheader
time	pelvis_tilt	pelvis_list	pelvis_rotation	pelvis_tx	pelvis_ty	pelvis_tz	hip_flexion_r	hip_adduction_r	hip_rotation_r	knee_angle_r	knee_angle_r_beta	ankle_angle_r	hip_flexion_l	hip_adduction_l	hip_rotation_l	knee_angle_l	knee_angle_l_beta	ankle_angle_l
     15.25333333	      1.42651565	     -9.20359445	    -12.37400588	      2.37149827	      0.95175715	      1.10654119	     19.77997249	     17.08000123	      5.90415035	     15.03283428	      0.26237245	      5.70168144	    -20.50828195	    -10.66003234	    -23.27778603	     91.00294048	      1.58830094	     -9.59363837
     15.26000000	      1.22353175	     -9.63521529	    -12.94433131	      2.36936062	      0.94696075	      1.10773402	     19.82728307	     17.44388096	      4.78384731	     17.39137950	      0.30353683	      5.35677462	    -18.63286752	    -11.35164363	    -22.95728074	     95.37475576	      1.66460351	     -8.43502605
     15.26666667	      1.13932637	    -10.12432797	    -13.56665603	      2.36672270	      0.94205138	      1.10849681	     19.94263965	     17.78222385	      3.72783742	     20.37880038	      0.35567716	      5.29904145	    -16.77338984	    -12.05708017	    -22.64794054	     99.64693979	      1.73916719	     -7.39621929
     15.27333333	      0.97300083	    -10.51806289	    -14.22198112	      2.36370807	      0.93693515	      1.10895042	     20.28795622	     17.98520864	      2.78607774	     23.82356207	      0.41579960	      5.59739185	    -14.62267085	    -12.66737720	    -22.20503504	    103.80864151	      1.81180259	     -6.51734316
     15.28000000	      0.72322120	    -10.74861949	    -14.90231566	      2.36032346	      0.93171433	      1.10906723	     20.80409270	     18.00631496	      2.10691890	     27.54033366	      0.48066950	      6.29079177	    -12.13621739	    -13.13291465	    -21.62384524	    107.81511127	      1.88172868	     -5.87351020
     15.28666667	      1.11503146	    -11.31271336	    -15.48071837	      2.35681085	      0.92725793	      1.10870837	     20.40941097	     18.15763243	      1.67888423	     31.09988941	      0.54279547	      7.42302068	    -10.40322847	    -13.91867713	    -21.18096218	    111.50008399	      1.94604358	     -5.28077138
     15.29333333	      0.26955429	    -10.97528081	    -15.98279644	      2.35291928	      0.92201335	      1.10800979	     21.51136583	     17.68900404	      1.55352468	     34.69448936	      0.60553307	      8.82963153	     -6.49145233	    -13.94189799	    -19.93206297	    115.12848964	      2.00937121	     -5.13875431
     15.30000000	      0.86744581	    -11.58114304	    -16.43388909	      2.34937561	      0.91882410	      1.10698748	     20.37279024	     17.83066179	      1.83859634	     37.52056449	      0.65485739	     10.61867056	     -4.65114565	    -14.79760359	    -19.25285718	    118.11869560	      2.06156015	     -4.99626215
     15.30666667	      1.79667815	    -11.29864085	    -17.16792070	      2.34764003	      0.91773129	      1.10582024	     18.59790677	     17.03637842	      3.00152362	     39.98071485	      0.69779511	     12.78814105	     -3.03819760	    -14.27871802	    -18.94426976	    119.80089038	      2.09091998	     -5.16641359
     15.31333333	      4.40964296	    -11.05437665	    -18.30529723	      2.34777997	      0.92022989	      1.10460683	     14.34812531	     15.75250605	      5.16706612	     41.62398547	      0.72647559	     15.10125871	     -3.79483444	    -13.11481570	    -19.75828960	    119.92494931	      2.09308522	     -5.54513635
     15.32000000	      7.03149285	    -11.00453921	    -18.75248317	      2.34757840	      0.92343779	      1.10299924	      9.74428582	     14.33905929	      6.85295075	     42.30601231	      0.73837921	     17.40345642	     -4.19959829	    -12.34740861	    -19.87246446	    119.94981460	      2.09351920	     -5.89229985
     15.32666667	      9.14539541	    -10.65103707	    -18.77958602	      2.34676579	      0.92631941	      1.10134363	      5.71735243	     12.64025985	      8.08318946	     42.60312764	      0.74356485	     19.51730050	     -3.61829352	    -11.60425279	    -19.45130210	    119.95931468	      2.09368501	     -6.08677298
     15.33333333	     10.65530307	    -10.19959380	    -18.39601332	      2.34546256	      0.92906395	      1.09976029	      2.13238241	     11.02970931	      8.88264833	     42.22287685	      0.73692822	     21.30381597	     -2.05817966	    -11.11804132	    -18.47681101	    119.96338518	      2.09375605	     -6.08699784
     15.34000000	     11.28280798	     -9.30888681	    -17.72884636	      2.34378643	      0.93103256	      1.09840534	     -0.46141786	      9.31723328	      9.18048509	     41.58621997	      0.72581646	     22.71062912	      0.81845387	    -10.52886617	    -17.07576429	    119.96451575	      2.09377579	     -5.85989189
     15.34666667	     11.35298196	     -8.41049330	    -16.69780564	      2.34183426	      0.93249751	      1.09719668	     -2.63793024	      7.89790160	      9.05265801	     40.55155082	      0.70775808	     23.55115326	      4.44562947	    -10.10726473	    -15.25258271	    119.96297312	      2.09374886	     -5.38205410
